HIERARCHY
ROOT Hips
{
  OFFSET 47.8876 96.7546 19.0061
  CHANNELS 6 Xposition Yposition Zposition Zrotation Xrotation Yrotation
  JOINT spine
  {
    OFFSET 0 7.96568 0.458067
    CHANNELS 3 Zrotation Xrotation Yrotation
    JOINT spine1
    {
      OFFSET 0 10.2431 0
      CHANNELS 3 Zrotation Xrotation Yrotation
      JOINT spine2
      {
        OFFSET 0 9.81475 0
        CHANNELS 3 Zrotation Xrotation Yrotation
        JOINT Neck
        {
          OFFSET 0 25.1986 1.20138
          CHANNELS 3 Zrotation Xrotation Yrotation
          JOINT Head
          {
            OFFSET 0 7.61315 0
            CHANNELS 3 Zrotation Xrotation Yrotation
            End Site
            {
              OFFSET 0 18.4281 -6.07733
            }
          }
        }
        JOINT RightShoulder
        {
          OFFSET -4.1327 10.5992 -0.575451
          CHANNELS 3 Zrotation Xrotation Yrotation
          JOINT RightArm
          {
            OFFSET 0 13.9018 0
            CHANNELS 3 Zrotation Xrotation Yrotation
            JOINT RightArmRoll
            {
              OFFSET 0 7.01789 0
              CHANNELS 3 Zrotation Xrotation Yrotation
              JOINT RightForeArm
              {
                OFFSET 0 20.4406 0
                CHANNELS 3 Zrotation Xrotation Yrotation
                JOINT RightForeArmRoll
                {
                  OFFSET 0 7.87516 0
                  CHANNELS 3 Zrotation Xrotation Yrotation
                  JOINT RightHand
                  {
                    OFFSET 0 15.8037 0
                    CHANNELS 3 Zrotation Xrotation Yrotation
                    End Site
                    {
                      OFFSET 0 0 0
                    }
                  }
                }
              }
            }
          }
        }
        JOINT LeftShoulder
        {
          OFFSET 4.1327 10.5992 -0.575451
          CHANNELS 3 Zrotation Xrotation Yrotation
          JOINT LeftArm
          {
            OFFSET 0 13.9018 0
            CHANNELS 3 Zrotation Xrotation Yrotation
            JOINT LeftArmRoll
            {
              OFFSET 0 7.01789 0
              CHANNELS 3 Zrotation Xrotation Yrotation
              JOINT LeftForeArm
              {
                OFFSET 0 20.4406 0
                CHANNELS 3 Zrotation Xrotation Yrotation
                JOINT LeftForeArmRoll
                {
                  OFFSET 0 7.87516 0
                  CHANNELS 3 Zrotation Xrotation Yrotation
                  JOINT LeftHand
                  {
                    OFFSET 0 15.8037 0
                    CHANNELS 3 Zrotation Xrotation Yrotation
                    End Site
                    {
                      OFFSET 0 0 0
                    }
                  }
                }
              }
            }
          }
        }
      }
    }
  }
  JOINT RightUpLeg
  {
    OFFSET -7.06048 -1.2947 -1.0861
    CHANNELS 3 Zrotation Xrotation Yrotation
    JOINT RightUpLegRoll
    {
      OFFSET 0 18.5308 0
      CHANNELS 3 Zrotation Xrotation Yrotation
      JOINT RightLeg
      {
        OFFSET 0 -22.9476 0
        CHANNELS 3 Zrotation Xrotation Yrotation
        JOINT RightLegRoll
        {
          OFFSET 0 23.0226 0
          CHANNELS 3 Zrotation Xrotation Yrotation
          JOINT RightFoot
          {
            OFFSET 0 19.1625 0
            CHANNELS 3 Zrotation Xrotation Yrotation
            JOINT RightToeBase
            {
              OFFSET 0 16.0188 0
              CHANNELS 3 Zrotation Xrotation Yrotation
              End Site
              {
                OFFSET 0.00678979 7.75782 -0.894206
              }
            }
          }
        }
      }
    }
  }
  JOINT LeftUpLeg
  {
    OFFSET 7.06048 -1.2947 -1.0861
    CHANNELS 3 Zrotation Xrotation Yrotation
    JOINT LeftUpLegRoll
    {
      OFFSET 0 18.5309 0
      CHANNELS 3 Zrotation Xrotation Yrotation
      JOINT LeftLeg
      {
        OFFSET 0 22.9475 0
        CHANNELS 3 Zrotation Xrotation Yrotation
        JOINT LeftLegRoll
        {
          OFFSET 0 23.2355 0
          CHANNELS 3 Zrotation Xrotation Yrotation
          JOINT LeftFoot
          {
            OFFSET 0 18.9496 0
            CHANNELS 3 Zrotation Xrotation Yrotation
            JOINT LeftToeBase
            {
              OFFSET 0 16.0188 0
              CHANNELS 3 Zrotation Xrotation Yrotation
              End Site
              {
                OFFSET -0.0304289 7.75782 -0.894207
              }
            }
          }
        }
      }
    }
  }
}
MOTION
Frames: 11
Frame Time: 0.00208333
48.438 96.8802 18.7651 -0.577977 0.639305 0.617688 0.0457862 -2.64404 -0.120123 0.0821507 -1.28433 -0.246774 0.0850388 0.360735 -0.248128 -4.01288 21.1598 2.62891 1.8112 9.92088 1.33123 38.8498 -9.46166 -5.64373 56.5757 19.7486 45.4979 -4.77083e-15 9.54166e-15 1.90833e-14 -7.88402 5.31307 -0.277072 -4.50701e-06 -6.21896e-06 -2.99999 8.02889 -4.95145 0.697676 -41.1013 -11.5701 7.52497 -54.4014 19.9847 -41.2878 -3.18568e-06 -1.64846e-07 -1.58375e-06 5.53108 4.24622 0.804445 1.72288e-05 -6.85994e-06 2.99998 -8.0289 -4.95142 -0.69766 177.35 3.7932 2.19266 180 7.01546e-15 178.921 178.063 6.55973 179.656 -1.25691e-06 -1.62437e-06 0.0676606 -18.5658 67.6605 19.2646 8.13649 25.2327 -3.48774 -174.972 2.36244 -1.20136 4.54188e-06 -4.6773e-06 -1.10668 -1.96 -7.28877 0.0670448 2.44502e-06 -3.05723e-06 -0.107253 19.05 68.2876 -19.778 -8.13649 25.2327 3.48774 
48.4407 96.8778 18.7686 -0.573631 0.632299 0.61861 0.0459972 -2.64259 -0.118772 0.0831318 -1.28147 -0.243902 0.0859903 0.363592 -0.245276 -4.02655 21.153 2.6333 1.81191 9.93356 1.33112 38.83 -9.4677 -5.64915 56.5892 19.7406 45.4919 -4.77083e-15 7.95139e-16 1.27222e-14 -7.88202 5.3382 -0.27417 -4.50701e-06 -6.21896e-06 -2.99999 8.02889 -4.95145 0.697676 -41.1171 -11.5668 7.52182 -54.3857 19.9902 -41.2993 -3.18568e-06 -1.64846e-07 -1.58375e-06 5.53522 4.24089 0.8046 1.72288e-05 -6.85994e-06 2.99998 -8.0289 -4.95142 -0.69766 177.342 3.78589 2.201 180 7.01546e-15 178.921 178.058 6.56388 179.657 -1.25691e-06 -1.62437e-06 0.0678213 -18.5696 67.6654 19.2688 8.13649 25.2327 -3.48774 -174.979 2.34917 -1.19603 4.54188e-06 -4.6773e-06 -1.10681 -1.9575 -7.2803 0.0671809 2.44502e-06 -3.05723e-06 -0.10669 19.0466 68.2837 -19.7745 -8.13649 25.2327 3.48774 
48.4448 96.8749 18.7589 -0.569385 0.625877 0.61997 0.046144 -2.64134 -0.117384 0.0841223 -1.279 -0.240975 0.0869523 0.366065 -0.242369 -4.03542 21.1478 2.63706 1.80635 9.94615 1.33187 38.8115 -9.47346 -5.65444 56.6008 19.7323 45.4862 4.77083e-15 0 -3.18055e-15 -7.87975 5.36201 -0.271502 -4.50701e-06 -6.21896e-06 -2.99999 8.02889 -4.95145 0.697676 -41.1323 -11.5623 7.51754 -54.3717 19.9922 -41.3084 -3.18568e-06 -1.64846e-07 -1.58375e-06 5.53784 4.23936 0.80446 1.72288e-05 -6.85994e-06 2.99998 -8.0289 -4.95142 -0.69766 177.334 3.77868 2.20932 180 7.01546e-15 178.921 178.053 6.56698 179.658 -1.25691e-06 -1.62437e-06 0.067951 -18.5732 67.6699 19.2727 8.13649 25.2327 -3.48774 -174.985 2.33636 -1.1908 4.54188e-06 -4.6773e-06 -1.10694 -1.95509 -7.27127 0.0673337 2.44502e-06 -3.05723e-06 -0.106062 19.0427 68.2792 -19.7704 -8.13649 25.2327 3.48774 
48.444 96.8765 18.763 -0.565229 0.619969 0.621736 0.0462343 -2.64024 -0.115969 0.0851183 -1.27686 -0.238002 0.0879207 0.368204 -0.239417 -4.04016 21.1441 2.64026 1.79547 9.95862 1.33335 38.7942 -9.47898 -5.65962 56.6107 19.7236 45.4807 -6.36111e-15 6.36111e-15 9.54166e-15 -7.87725 5.38457 -0.269049 -4.50701e-06 -6.21896e-06 -2.99999 8.02889 -4.95145 0.697676 -41.1468 -11.5566 7.51225 -54.3592 19.9912 -41.3154 -3.18568e-06 -1.64846e-07 -1.58375e-06 5.53914 4.24113 0.804067 1.72288e-05 -6.85994e-06 2.99998 -8.0289 -4.95142 -0.69766 177.327 3.77155 2.21759 180 7.01546e-15 178.921 178.047 6.5691 179.659 -1.25691e-06 -1.62437e-06 0.0680533 -18.5765 67.674 19.2764 8.13649 25.2327 -3.48774 -174.992 2.32398 -1.18566 4.54188e-06 -4.6773e-06 -1.10705 -1.95275 -7.26177 0.0675016 2.44502e-06 -3.05723e-06 -0.105382 19.0384 68.2743 -19.7659 -8.13649 25.2327 3.48774 
48.4485 96.8762 18.7681 -0.561151 0.614505 0.623872 0.0462757 -2.63928 -0.114532 0.086116 -1.27501 -0.234994 0.0888913 0.370054 -0.236431 -4.04143 21.1416 2.64295 1.78022 9.97089 1.33541 38.7779 -9.48431 -5.66472 56.6191 19.7147 45.4755 -1.59028e-15 2.38542e-15 6.36111e-15 -7.87453 5.40598 -0.266789 -4.50701e-06 -6.21896e-06 -2.99999 8.02889 -4.95145 0.697676 -41.1608 -11.55 7.50609 -54.348 19.9876 -41.3207 -3.18568e-06 -1.64846e-07 -1.58375e-06 5.53931 4.24572 0.80346 1.72288e-05 -6.85994e-06 2.99998 -8.0289 -4.95142 -0.69766 177.319 3.76448 2.22582 180 7.01546e-15 178.921 178.042 6.57041 179.66 -1.25691e-06 -1.62437e-06 0.0681316 -18.5796 67.678 19.2798 8.13649 25.2327 -3.48774 -174.998 2.31197 -1.1806 4.54188e-06 -4.6773e-06 -1.10716 -1.95047 -7.2519 0.0676828 2.44502e-06 -3.05723e-06 -0.104661 19.0337 68.2689 -19.7611 -8.13649 25.2327 3.48774 
48.4486 96.877 18.7677 -0.557141 0.609412 0.626348 0.0462758 -2.63844 -0.113082 0.0871112 -1.2734 -0.231963 0.0898601 0.371664 -0.233422 -4.03988 21.1403 2.64521 1.76157 9.98294 1.3379 38.7626 -9.48951 -5.66978 56.6262 19.7056 45.4704 3.18055e-15 6.36111e-15 6.36111e-15 -7.87163 5.42633 -0.264705 -4.50701e-06 -6.21896e-06 -2.99999 8.02889 -4.95145 0.697676 -41.1744 -11.5426 7.49919 -54.3379 19.9819 -41.3246 -3.18568e-06 -1.64846e-07 -1.58375e-06 5.53856 4.25265 0.802681 1.72288e-05 -6.85994e-06 2.99998 -8.0289 -4.95142 -0.69766 177.312 3.75745 2.23401 180 7.01546e-15 178.921 178.037 6.57102 179.661 -1.25691e-06 -1.62437e-06 0.0681894 -18.5824 67.6816 19.283 8.13649 25.2327 -3.48774 -175.004 2.3003 -1.17558 4.54188e-06 -4.6773e-06 -1.10727 -1.94822 -7.24174 0.0678758 2.44502e-06 -3.05723e-06 -0.103911 19.0288 68.2633 -19.7559 -8.13649 25.2327 3.48774 
48.4512 96.8792 18.7892 -0.553189 0.60462 0.629128 0.0462421 -2.63769 -0.111626 0.0881 -1.27198 -0.228918 0.090823 0.373081 -0.2304 -4.03618 21.1399 2.64708 1.74047 9.9947 1.34069 38.7481 -9.49461 -5.67481 56.6322 19.6964 45.4654 -1.59028e-15 1.59028e-15 1.59028e-14 -7.86857 5.4457 -0.262775 -4.50701e-06 -6.21896e-06 -2.99999 8.02889 -4.95145 0.697676 -41.1876 -11.5344 7.4917 -54.3287 19.9746 -41.3272 -3.18568e-06 -1.64846e-07 -1.58375e-06 5.53709 4.26142 0.801769 1.72288e-05 -6.85994e-06 2.99998 -8.0289 -4.95142 -0.69766 177.304 3.75045 2.24214 180 7.01546e-15 178.921 178.031 6.57105 179.662 -1.25691e-06 -1.62437e-06 0.0682301 -18.5852 67.6851 19.286 8.13649 25.2327 -3.48774 -175.01 2.28892 -1.17061 4.54188e-06 -4.6773e-06 -1.10738 -1.94601 -7.23138 0.0680787 2.44502e-06 -3.05723e-06 -0.103146 19.0237 68.2574 -19.7506 -8.13649 25.2327 3.48774 
48.4527 96.8796 18.7867 -0.549283 0.600059 0.632181 0.0461823 -2.63701 -0.110171 0.0890785 -1.27071 -0.225871 0.0917757 0.374351 -0.227375 -4.03099 21.1402 2.64864 1.71786 10.0061 1.34362 38.7343 -9.49967 -5.67985 56.6374 19.6871 45.4606 4.77083e-15 -9.54166e-15 1.59028e-14 -7.86538 5.46419 -0.260979 -4.50701e-06 -6.21896e-06 -2.99999 8.02889 -4.95145 0.697676 -41.2005 -11.5258 7.48375 -54.3202 19.9662 -41.3291 -3.18568e-06 -1.64846e-07 -1.58375e-06 5.53509 4.27154 0.800765 1.72288e-05 -6.85994e-06 2.99998 -8.0289 -4.95142 -0.69766 177.297 3.74346 2.25021 180 7.01546e-15 178.921 178.026 6.57061 179.663 -1.25691e-06 -1.62437e-06 0.0682571 -18.5877 67.6883 19.2889 8.13649 25.2327 -3.48774 -175.016 2.2778 -1.16567 4.54188e-06 -4.6773e-06 -1.10748 -1.9438 -7.22092 0.0682899 2.44502e-06 -3.05723e-06 -0.102375 19.0185 68.2514 -19.7451 -8.13649 25.2327 3.48774 
48.4538 96.8792 18.7696 -0.545412 0.595656 0.635472 0.046104 -2.63638 -0.108724 0.0900427 -1.26954 -0.222831 0.0927143 0.375523 -0.224358 -4.02496 21.1411 2.64995 1.69472 10.0172 1.34656 38.721 -9.50473 -5.68491 56.642 19.6778 45.4558 -3.18055e-15 1.51076e-14 -0 -7.86207 5.48188 -0.259299 -4.50701e-06 -6.21896e-06 -2.99999 8.02889 -4.95145 0.697676 -41.2133 -11.5167 7.47547 -54.3122 19.957 -41.3304 -3.18568e-06 -1.64846e-07 -1.58375e-06 5.53277 4.28253 0.79971 1.72288e-05 -6.85994e-06 2.99998 -8.0289 -4.95142 -0.69766 177.289 3.73647 2.25822 180 7.01546e-15 178.921 178.02 6.56983 179.664 -1.25691e-06 -1.62437e-06 0.068274 -18.5902 67.6915 19.2916 8.13649 25.2327 -3.48774 -175.022 2.26689 -1.16073 4.54188e-06 -4.6773e-06 -1.10758 -1.94159 -7.21043 0.0685078 2.44502e-06 -3.05723e-06 -0.101613 19.0132 68.2453 -19.7396 -8.13649 25.2327 3.48774 
48.4553 96.88 18.7778 -0.541566 0.59134 0.63897 0.0460147 -2.63578 -0.107293 0.0909885 -1.26842 -0.219811 0.0936346 0.376644 -0.221359 -4.01876 21.1424 2.65106 1.67199 10.0278 1.34936 38.708 -9.50985 -5.69004 56.6461 19.6686 45.451 -0 -3.18055e-15 -0 -7.85869 5.49886 -0.257713 -4.50701e-06 -6.21896e-06 -2.99999 8.02889 -4.95145 0.697676 -41.2259 -11.5074 7.46699 -54.3044 19.9475 -41.3314 -3.18568e-06 -1.64846e-07 -1.58375e-06 5.53033 4.2939 0.798644 1.72288e-05 -6.85994e-06 2.99998 -8.0289 -4.95142 -0.69766 177.282 3.72944 2.26616 180 7.01546e-15 178.921 178.015 6.56883 179.665 -1.25691e-06 -1.62437e-06 0.0682841 -18.5925 67.6945 19.2942 8.13649 25.2327 -3.48774 -175.028 2.25614 -1.15578 4.54188e-06 -4.6773e-06 -1.10767 -1.93936 -7.20001 0.0687306 2.44502e-06 -3.05723e-06 -0.10087 19.008 68.2393 -19.7341 -8.13649 25.2327 3.48774 
48.4458 96.9021 18.7734 -0.537735 0.587042 0.64264 0.0459221 -2.63518 -0.105885 0.0919119 -1.2673 -0.21682 0.0945323 0.377761 -0.218389 -4.01305 21.144 2.65205 1.65063 10.0379 1.35187 38.6954 -9.51506 -5.69525 56.6501 19.6594 45.4463 -4.77083e-15 1.27222e-14 1.59028e-14 -7.85524 5.51522 -0.256203 -4.50701e-06 -6.21896e-06 -2.99999 8.02889 -4.95145 0.697676 -41.2385 -11.4981 7.45847 -54.2967 19.9383 -41.3325 -3.18568e-06 -1.64846e-07 -1.58375e-06 5.52796 4.30517 0.797608 1.72288e-05 -6.85994e-06 2.99998 -8.0289 -4.95142 -0.69766 177.275 3.72238 2.27402 180 7.01546e-15 178.921 178.009 6.56773 179.667 -1.25691e-06 -1.62437e-06 0.068291 -18.5948 67.6974 19.2968 8.13649 25.2327 -3.48774 -175.034 2.24552 -1.15081 4.54188e-06 -4.6773e-06 -1.10777 -1.9371 -7.18975 0.0689567 2.44502e-06 -3.05723e-06 -0.100159 19.0029 68.2334 -19.7288 -8.13649 25.2327 3.48774 
